<svg width="1400" height="900" xmlns="http://www.w3.org/2000/svg">
  <defs>
    <marker id="arrowhead" markerWidth="10" markerHeight="7" refX="10" refY="3.5" orient="auto">
      <polygon points="0 0, 10 3.5, 0 7" fill="#7F8C8D"/>
    </marker>
  </defs>
  <rect width="100%" height="100%" fill="#f9f9f9"/>
  
        <g>
          <rect x="50" y="50" width="120" height="60" rx="5" fill="#4A90E2" stroke="#2874A6" stroke-width="2"/>
          <text x="110" y="85" text-anchor="middle" fill="white" font-size="12" font-weight="bold">API Gateway</text>
        </g>
      
  
        <g>
          <rect x="250" y="50" width="120" height="60" rx="5" fill="#4A90E2" stroke="#2874A6" stroke-width="2"/>
          <text x="310" y="85" text-anchor="middle" fill="white" font-size="12" font-weight="bold">Auth Service</text>
        </g>
      
  
        <g>
          <rect x="450" y="50" width="120" height="60" rx="5" fill="#4A90E2" stroke="#2874A6" stroke-width="2"/>
          <text x="510" y="85" text-anchor="middle" fill="white" font-size="12" font-weight="bold">User Service</text>
        </g>
      
  
        <g>
          <rect x="50" y="200" width="120" height="60" rx="5" fill="#4A90E2" stroke="#2874A6" stroke-width="2"/>
          <text x="110" y="235" text-anchor="middle" fill="white" font-size="12" font-weight="bold">Order Service</text>
        </g>
      
  
        <g>
          <rect x="250" y="200" width="120" height="60" rx="5" fill="#4A90E2" stroke="#2874A6" stroke-width="2"/>
          <text x="310" y="235" text-anchor="middle" fill="white" font-size="12" font-weight="bold">Payment Service</text>
        </g>
      
  
        <g>
          <rect x="450" y="200" width="120" height="60" rx="5" fill="#4A90E2" stroke="#2874A6" stroke-width="2"/>
          <text x="510" y="235" text-anchor="middle" fill="white" font-size="12" font-weight="bold">Notification Service</text>
        </g>
      
  
        <g>
          <ellipse cx="100" cy="350" rx="50" ry="30" fill="#E74C3C" stroke="#C0392B" stroke-width="2"/>
          <ellipse cx="100" cy="345" rx="50" ry="8" fill="#C0392B"/>
          <text x="100" y="355" text-anchor="middle" fill="white" font-size="11" font-weight="bold">PostgreSQL Main</text>
        </g>
      
  
        <g>
          <ellipse cx="300" cy="350" rx="50" ry="30" fill="#E74C3C" stroke="#C0392B" stroke-width="2"/>
          <ellipse cx="300" cy="345" rx="50" ry="8" fill="#C0392B"/>
          <text x="300" y="355" text-anchor="middle" fill="white" font-size="11" font-weight="bold">MongoDB Orders</text>
        </g>
      
  
          <line x1="110" y1="110" x2="310" y2="110" stroke="#7F8C8D" stroke-width="2" marker-end="url(#arrowhead)"/>
          <text x="210" y="105" text-anchor="middle" fill="#7F8C8D" font-size="10">http</text>
        
  
          <line x1="110" y1="110" x2="510" y2="110" stroke="#7F8C8D" stroke-width="2" marker-end="url(#arrowhead)"/>
          <text x="310" y="105" text-anchor="middle" fill="#7F8C8D" font-size="10">http</text>
        
  
          <line x1="110" y1="110" x2="110" y2="260" stroke="#7F8C8D" stroke-width="2" marker-end="url(#arrowhead)"/>
          <text x="110" y="180" text-anchor="middle" fill="#7F8C8D" font-size="10">http</text>
        
  
          <line x1="310" y1="110" x2="100" y2="320" stroke="#7F8C8D" stroke-width="2" marker-end="url(#arrowhead)"/>
          <text x="205" y="210" text-anchor="middle" fill="#7F8C8D" font-size="10">sql</text>
        
  
          <line x1="510" y1="110" x2="100" y2="320" stroke="#7F8C8D" stroke-width="2" marker-end="url(#arrowhead)"/>
          <text x="305" y="210" text-anchor="middle" fill="#7F8C8D" font-size="10">sql</text>
        
  
          <line x1="110" y1="260" x2="300" y2="320" stroke="#7F8C8D" stroke-width="2" marker-end="url(#arrowhead)"/>
          <text x="205" y="285" text-anchor="middle" fill="#7F8C8D" font-size="10">nosql</text>
        
  
          <line x1="110" y1="260" x2="310" y2="260" stroke="#7F8C8D" stroke-width="2" marker-end="url(#arrowhead)"/>
          <text x="210" y="255" text-anchor="middle" fill="#7F8C8D" font-size="10">http</text>
        
</svg>